<?xml version="1.0" standalone="no"?>
<!DOCTYPE svg PUBLIC "-//W3C//DTD SVG 20010904//EN"
 "http://www.w3.org/TR/2001/REC-SVG-20010904/DTD/svg10.dtd">
<svg version="1.0" xmlns="http://www.w3.org/2000/svg"
 width="3201.000000pt" height="3201.000000pt" viewBox="0 0 3201.000000 3201.000000"
 preserveAspectRatio="xMidYMid meet">
<g transform="translate(0.000000,3201.000000) scale(0.100000,-0.100000)"
fill="#000000" stroke="none">
<path d="M10 16005 l0 -9405 15995 0 15995 0 0 9405 0 9405 -15995 0 -15995 0
0 -9405z m19983 3753 c114 -54 206 -180 258 -358 20 -67 23 -102 26 -325 1
-137 8 -635 14 -1105 6 -470 14 -913 18 -983 l6 -129 97 144 c174 257 370 487
550 645 341 301 644 451 943 470 242 14 459 -84 578 -264 94 -141 122 -263
114 -492 -9 -269 -73 -513 -211 -798 -182 -375 -417 -700 -761 -1052 -288
-294 -669 -598 -894 -710 -75 -38 -196 -71 -261 -71 -141 0 -274 86 -331 215
-17 38 -24 45 -40 40 -11 -4 -51 -7 -89 -7 -133 0 -236 77 -313 231 l-42 84
-7 276 c-4 152 -12 506 -18 786 -15 687 -62 2037 -90 2580 -6 110 -20 256 -32
325 -28 170 -22 267 21 355 37 74 92 126 165 155 78 30 220 25 299 -12z
m-3662 -1447 c115 -44 191 -143 229 -302 29 -121 28 -293 -6 -881 l-6 -116
138 29 c256 53 273 59 289 88 21 41 96 108 140 127 51 21 155 21 215 -1 112
-40 206 -129 267 -253 37 -73 38 -80 38 -181 0 -94 -3 -113 -27 -163 -76 -164
-204 -228 -578 -292 -165 -28 -482 -76 -505 -76 -8 0 -5 -285 5 -441 10 -153
39 -361 71 -514 28 -135 25 -199 -12 -274 -53 -105 -159 -166 -309 -178 -115
-9 -200 19 -278 92 -143 132 -181 315 -189 893 l-5 343 -37 -5 c-127 -20 -460
-40 -666 -40 l-240 -1 -77 37 c-176 84 -250 231 -203 403 21 80 61 137 123
176 81 51 127 60 382 70 212 8 642 42 696 54 21 5 22 11 28 222 18 642 37 938
65 1013 36 95 107 158 210 187 62 17 173 10 242 -16z m-4301 -110 c100 -34
198 -97 280 -180 139 -140 200 -276 208 -466 2 -60 -1 -137 -7 -169 -10 -57
-10 -62 14 -97 74 -106 78 -150 105 -1059 11 -377 22 -706 24 -733 3 -29 14
-59 30 -80 45 -59 66 -117 66 -189 0 -168 -124 -380 -265 -448 -42 -21 -64
-25 -140 -25 -77 1 -98 5 -147 29 -108 52 -176 139 -227 293 -47 140 -53 224
-46 638 l7 370 -112 -165 c-176 -258 -260 -361 -465 -566 -267 -267 -408 -376
-620 -479 -319 -155 -667 -180 -896 -64 -133 66 -249 220 -295 389 -29 106
-25 306 9 444 104 417 474 1053 936 1606 385 462 797 809 1104 931 136 54 312
62 437 20z m4362 -8302 c229 -48 392 -255 391 -494 -1 -193 -97 -356 -262
-443 -118 -64 -78 -62 -1273 -62 -755 0 -1103 3 -1140 11 -132 28 -275 133
-336 246 -51 97 -65 163 -60 280 4 96 7 108 46 187 49 99 123 178 210 224 119
63 61 61 1269 61 766 1 1118 -2 1155 -10z m4930 0 c142 -30 276 -135 341 -269
144 -294 -18 -640 -335 -715 -96 -22 -3861 -22 -3957 0 -128 30 -234 108 -310
224 -155 241 -60 590 195 715 118 58 -5 55 2086 55 1367 1 1942 -2 1980 -10z"/>
<path d="M21720 17347 c-374 -128 -799 -649 -1095 -1343 -49 -114 -145 -392
-145 -418 0 -12 26 -3 108 38 534 268 1034 834 1227 1387 41 119 65 229 65
304 l0 55 -47 0 c-27 0 -77 -11 -113 -23z"/>
<path d="M11747 17495 c-56 -21 -133 -75 -254 -179 -472 -406 -1070 -1261
-1192 -1706 -31 -111 -30 -113 27 -104 171 25 319 104 520 277 231 200 432
458 739 947 235 375 252 412 268 586 9 92 1 134 -30 168 -27 30 -27 29 -78 11z"/>
</g>
</svg>
